<svg width="183" height="92" viewBox="0 0 183 92" fill="none" xmlns="http://www.w3.org/2000/svg">
<path d="M108.358 73V22.0909H124.043C127.258 22.0909 130.026 22.7206 132.346 23.9801C134.666 25.2396 136.447 26.9879 137.69 29.2251C138.933 31.4458 139.555 34.031 139.555 36.9808C139.555 39.8975 138.933 42.4661 137.69 44.6868C136.447 46.8909 134.666 48.6143 132.346 49.8572C130.042 51.1001 127.283 51.7216 124.068 51.7216H110.023V48.8132H123.994C126.612 48.8132 128.849 48.3243 130.705 47.3466C132.561 46.3688 133.987 45.0017 134.981 43.245C135.975 41.4718 136.472 39.3838 136.472 36.9808C136.472 34.5613 135.975 32.4567 134.981 30.6669C133.987 28.8606 132.553 27.4602 130.68 26.4659C128.824 25.4716 126.587 24.9744 123.969 24.9744H111.465V73H108.358ZM129.263 49.9318L141.792 73H138.212L125.759 49.9318H129.263ZM150.571 73V22.0909H153.678V70.1165H178.536V73H150.571Z" fill="black"/>
<rect width="92" height="92" rx="11" fill="#717171"/>
<path d="M47.9318 23.4545H56.3636V53.8636C56.3636 57.197 55.5758 60.1288 54 62.6591C52.4394 65.1894 50.2424 67.1667 47.4091 68.5909C44.5758 70 41.2652 70.7045 37.4773 70.7045C33.6742 70.7045 30.3561 70 27.5227 68.5909C24.6894 67.1667 22.4924 65.1894 20.9318 62.6591C19.3712 60.1288 18.5909 57.197 18.5909 53.8636V23.4545H27.0227V53.1591C27.0227 55.0985 27.447 56.8258 28.2955 58.3409C29.1591 59.8561 30.3712 61.0455 31.9318 61.9091C33.4924 62.7576 35.3409 63.1818 37.4773 63.1818C39.6136 63.1818 41.4621 62.7576 43.0227 61.9091C44.5985 61.0455 45.8106 59.8561 46.6591 58.3409C47.5076 56.8258 47.9318 55.0985 47.9318 53.1591V23.4545ZM73.9602 23.4545V70H65.5284V23.4545H73.9602Z" fill="white"/>
</svg>
